<?xml version="1.0" encoding="UTF-8"?>
<!-- Generator: Adobe Illustrator 17.0.0, SVG Export Plug-In . SVG Version: 6.00 Build 0)  -->
<!DOCTYPE svg PUBLIC "-//W3C//DTD SVG 1.1//EN" "http://www.w3.org/Graphics/SVG/1.1/DTD/svg11.dtd">
<svg version="1.1" id="Layer_1" xmlns="http://www.w3.org/2000/svg" xmlns:xlink="http://www.w3.org/1999/xlink" x="0px" y="0px" width="164.345px" height="30px" viewBox="0 0 164.345 30" enable-background="new 0 0 164.345 30" xml:space="preserve">
<path fill="#F9AE17" d="M137.87,23.052c0.041-1.369-0.102-3.035,0.099-4.69c0.236-1.945,0.688-3.828,1.959-5.394  c1.839-2.265,4.288-2.874,7.063-2.499c1.525,0.206,2.839,0.871,3.905,1.987c0.178,0.186,0.248,0.139,0.388-0.011  c2.263-2.43,6.35-2.603,8.888-1.227c1.669,0.905,2.716,2.325,3.352,4.074c0.573,1.577,0.782,3.226,0.807,4.891  c0.036,2.408,0.016,4.816,0.004,7.224c-0.008,1.543-1.111,2.554-2.606,2.42c-1.161-0.104-2.036-1.105-2.042-2.374  c-0.01-2.268,0.006-4.537-0.007-6.805c-0.006-1.149-0.045-2.3-0.381-3.413c-0.56-1.86-2.104-2.691-3.819-2.06  c-0.786,0.29-1.25,0.893-1.544,1.643c-0.373,0.952-0.494,1.952-0.497,2.966c-0.007,2.563,0.001,5.127-0.011,7.69  c-0.006,1.346-0.921,2.366-2.145,2.433c-1.423,0.077-2.495-0.934-2.503-2.395c-0.012-2.284,0.005-4.568-0.007-6.851  c-0.006-1.149-0.05-2.298-0.375-3.414c-0.648-2.219-2.377-2.56-3.849-2.054c-0.79,0.271-1.241,0.905-1.53,1.655  c-0.345,0.894-0.477,1.831-0.482,2.782c-0.014,2.594,0,5.189-0.015,7.784c-0.009,1.54-1.118,2.549-2.613,2.412  c-1.144-0.105-2.021-1.096-2.034-2.334C137.859,26.109,137.87,24.726,137.87,23.052z"/>
<path fill="#F9AE17" d="M98.16,20.112c-0.001-4.686,3.279-8.719,7.734-9.568c2.722-0.519,5.239,0.051,7.515,1.633  c1.037,0.721,1.283,2.117,0.589,3.181c-0.658,1.008-2.029,1.34-3.082,0.702c-0.845-0.512-1.7-0.951-2.708-1.031  c-2.561-0.202-4.934,1.571-5.297,4.133c-0.385,2.714,1.041,4.876,3.668,5.621c1.296,0.368,2.553,0.169,3.718-0.52  c0.561-0.331,1.092-0.71,1.791-0.701c1.035,0.014,1.905,0.653,2.223,1.663c0.291,0.925-0.073,1.975-0.885,2.551  c-5.38,3.817-12.786,1.367-14.812-4.903C98.309,21.938,98.17,20.973,98.16,20.112z"/>
<path fill="#FE7300" d="M45.584,15.2c0-3.961-0.003-7.922,0.002-11.883c0.001-1.222,0.718-2.167,1.797-2.403  c1.338-0.292,2.579,0.546,2.809,1.904c0.031,0.183,0.045,0.37,0.045,0.556c0.002,7.907,0.003,15.813,0.001,23.72  c0,1.155-0.531,1.997-1.472,2.368c-1.51,0.594-3.119-0.457-3.172-2.099c-0.033-1.009-0.009-2.019-0.009-3.029  C45.584,21.289,45.584,18.245,45.584,15.2z"/>
<path fill="#FE7300" d="M76.625,15.233c0-3.961-0.002-7.922,0.001-11.883c0.001-1.317,0.756-2.26,1.949-2.459  c1.227-0.205,2.387,0.584,2.633,1.803c0.049,0.242,0.068,0.493,0.068,0.74c0.003,7.876,0.001,15.751,0.005,23.627  c0,1.074-0.397,1.914-1.402,2.369c-1.453,0.658-3.109-0.343-3.24-1.942c-0.027-0.324-0.013-0.652-0.013-0.978  C76.625,22.751,76.625,18.992,76.625,15.233z"/>
<path fill="#FE7300" d="M89.949,20.022c0,2.392,0.006,4.785-0.002,7.177c-0.005,1.352-0.818,2.305-2.065,2.452  c-1.288,0.152-2.434-0.766-2.571-2.061c-0.015-0.139-0.016-0.279-0.016-0.419c-0.001-4.769-0.002-9.538,0-14.307  c0.001-1.256,0.711-2.208,1.806-2.443c1.499-0.321,2.817,0.745,2.842,2.331c0.023,1.429,0.005,2.858,0.005,4.287  C89.949,18.033,89.949,19.028,89.949,20.022z"/>
<path fill="#F9AE17" d="M97.218,27.523c0.005,1.281-1.055,2.361-2.322,2.366c-1.269,0.005-2.326-1.062-2.33-2.352  c-0.004-1.291,1.052-2.369,2.316-2.366C96.157,25.175,97.213,26.239,97.218,27.523z"/>
<path fill="#FE7300" d="M87.623,6.606c-1.267,0.002-2.317-1.035-2.326-2.3c-0.01-1.251,1.039-2.323,2.293-2.344  c1.257-0.022,2.357,1.069,2.354,2.335C89.94,5.553,88.885,6.603,87.623,6.606z"/>
<path fill="#FE7300" d="M17.385,18.942c-0.319-0.285-0.325-0.415-0.005-0.706c3.331-3.037,4.36-7.359,2.784-11.588  c-1.746-4.682-7.041-7.556-11.901-6.387C4.055,1.273,1.407,3.929,0.274,8.106C0.166,8.503,0.219,8.935,0,9.306  c0,6.215,0,12.429,0,18.644c0.151,0.068,0.138,0.228,0.192,0.35c0.449,1.008,1.513,1.56,2.596,1.345  c1.131-0.225,1.861-1.17,1.864-2.444c0.006-2.485,0.001-4.97,0.004-7.456c0-0.162-0.045-0.333,0.037-0.491  c0.039,0.005,0.074,0,0.096,0.015c1.8,1.159,3.787,1.636,5.911,1.705c2.554,0.084,4.703,1.859,5.349,4.235  c0.186,0.683,0.237,1.374,0.241,2.072c0.004,0.723,0.23,1.347,0.778,1.822c0.737,0.639,1.587,0.783,2.474,0.391  c0.99-0.437,1.393-1.271,1.399-2.323C20.958,23.908,19.837,21.132,17.385,18.942z M10.285,16.257  c-2.988-0.013-5.616-2.494-5.616-5.774c0-3.25,2.546-5.806,5.786-5.809c3.232-0.003,5.764,2.602,5.769,5.774  C16.233,13.687,13.638,16.271,10.285,16.257z"/>
<path fill="#FE7300" d="M72.82,18.503c-0.87-5.722-6.712-9.566-12.47-7.662c-6.064,2.006-8.545,8.95-5.101,14.325  c2.008,3.134,4.994,4.581,8.734,4.401c1.546-0.075,2.968-0.566,4.327-1.353c0.233,0.719,0.665,1.245,1.349,1.534  c0.234,0.099,0.48,0.169,0.721,0.253c0.124,0,0.249,0,0.373,0c0.016-0.024,0.027-0.065,0.048-0.071  c1.542-0.409,2.087-1.121,2.089-2.726c0.003-2.158-0.002-4.316,0.02-6.474C72.918,19.984,72.932,19.245,72.82,18.503z   M68.236,19.982c0.151,2.643-2.17,4.974-4.93,4.972c-2.728-0.002-4.975-2.288-4.954-4.999c0.02-2.708,2.256-4.96,4.958-4.95  C66.129,15.017,68.391,17.393,68.236,19.982z"/>
<path fill="#FE7300" d="M42.166,20.291c0.013-0.779-0.026-1.552-0.199-2.312c-1.332-5.841-7.228-9.045-12.848-6.982  c-4.711,1.729-7.333,7.215-5.714,11.957c1.947,5.702,8.194,8.264,13.586,5.546c0.478-0.241,0.763-0.332,0.977,0.245  c0.045,0.121,0.173,0.218,0.278,0.309c0.725,0.624,1.554,0.775,2.43,0.419c0.962-0.391,1.429-1.17,1.446-2.192  c0.022-1.351,0.006-2.703,0.006-4.054c0.011,0,0.023,0,0.034,0C42.162,22.247,42.15,21.269,42.166,20.291z M32.553,24.955  c-2.72,0.009-4.977-2.277-4.964-4.99c0.013-2.705,2.239-4.957,4.949-4.958c2.779-0.001,5.08,2.333,4.935,4.967  C37.626,22.614,35.323,24.946,32.553,24.955z"/>
<path fill="#F9AE17" d="M135.281,19.594c-0.134-5.271-4.838-9.691-10.46-9.193c-4.951,0.438-9.076,4.766-8.737,10.176  c0.331,5.275,4.755,9.185,9.883,9.018C131.618,29.411,135.546,24.625,135.281,19.594z M125.7,24.951  c-2.799-0.024-4.935-2.185-4.985-4.968c0.048-2.782,2.177-4.979,4.979-4.964c2.862,0.015,4.947,2.224,4.958,4.982  C130.664,22.725,128.397,24.974,125.7,24.951z"/>
</svg>